<svg width="170" height="55" viewBox="0 0 170 55" fill="none" xmlns="http://www.w3.org/2000/svg">
<path d="M12.2852 24.6504L17.3301 24.3867C17.4004 25.9922 17.6758 27.0762 18.1562 27.6387C18.9297 28.5527 20.3594 29.0098 22.4453 29.0098C24.1797 29.0098 25.4336 28.6992 26.207 28.0781C26.9805 27.457 27.3672 26.707 27.3672 25.8281C27.3672 25.0664 27.0508 24.4219 26.418 23.8945C25.9727 23.5078 24.748 22.8809 22.7441 22.0137C20.752 21.1465 19.293 20.4258 18.3672 19.8516C17.4531 19.2656 16.7324 18.5098 16.2051 17.584C15.6777 16.6582 15.4141 15.5742 15.4141 14.332C15.4141 12.1641 16.1992 10.3652 17.7695 8.93555C19.3398 7.50586 21.6133 6.79102 24.5898 6.79102C27.6133 6.79102 29.9512 7.5 31.6035 8.91797C33.2676 10.3359 34.1816 12.2227 34.3457 14.5781L29.2656 14.8066C29.1367 13.5762 28.6914 12.6328 27.9297 11.9766C27.168 11.3203 26.043 10.9922 24.5547 10.9922C23.0898 10.9922 22.041 11.25 21.4082 11.7656C20.7871 12.2812 20.4766 12.9316 20.4766 13.7168C20.4766 14.4551 20.7637 15.0645 21.3379 15.5449C21.9121 16.0371 23.1836 16.7109 25.1523 17.5664C28.1172 18.8438 30.0039 19.8809 30.8125 20.6777C32.0195 21.8496 32.623 23.3555 32.623 25.1953C32.623 27.4688 31.7207 29.4141 29.916 31.0312C28.123 32.6367 25.6211 33.4395 22.4102 33.4395C20.1953 33.4395 18.2734 33.0703 16.6445 32.332C15.0273 31.582 13.8848 30.5449 13.2168 29.2207C12.5488 27.8965 12.2383 26.373 12.2852 24.6504ZM40.5684 33H35.5234L40.9199 7.23047H45.9648L44.0312 16.4062C45.168 15.5156 46.2285 14.877 47.2129 14.4902C48.1973 14.0918 49.252 13.8926 50.377 13.8926C51.8887 13.8926 53.084 14.3262 53.9629 15.1934C54.8418 16.0605 55.2812 17.1973 55.2812 18.6035C55.2812 19.3535 55.1172 20.5137 54.7891 22.084L52.5039 33H47.459L49.7969 21.873C50.043 20.666 50.166 19.8926 50.166 19.5527C50.166 18.9316 49.9727 18.4336 49.5859 18.0586C49.1992 17.6836 48.6719 17.4961 48.0039 17.4961C47.1602 17.4961 46.3516 17.7891 45.5781 18.375C44.5703 19.1484 43.8027 20.0977 43.2754 21.2227C42.9824 21.8438 42.5957 23.3027 42.1152 25.5996L40.5684 33ZM58.1992 25.248C58.1992 21.791 59.1719 19.0371 61.1172 16.9863C63.0742 14.9238 65.6406 13.8926 68.8164 13.8926C71.5703 13.8926 73.7207 14.6543 75.2676 16.1777C76.8145 17.6895 77.5879 19.7285 77.5879 22.2949C77.5879 25.3184 76.6211 27.9316 74.6875 30.1348C72.7539 32.3379 70.1641 33.4395 66.918 33.4395C65.1602 33.4395 63.6016 33.0879 62.2422 32.3848C60.8828 31.6816 59.8691 30.6855 59.2012 29.3965C58.5332 28.1074 58.1992 26.7246 58.1992 25.248ZM72.5781 21.6445C72.5781 20.4492 72.2266 19.4941 71.5234 18.7793C70.832 18.0527 69.9355 17.6895 68.834 17.6895C67.7441 17.6895 66.7773 18.0293 65.9336 18.709C65.0898 19.377 64.4336 20.3555 63.9648 21.6445C63.4961 22.9219 63.2617 24.0996 63.2617 25.1777C63.2617 26.5137 63.625 27.5742 64.3516 28.3594C65.0781 29.1445 65.9922 29.5371 67.0938 29.5371C68.4766 29.5371 69.6367 28.9453 70.5742 27.7617C71.9102 26.0859 72.5781 24.0469 72.5781 21.6445ZM83.2129 14.332H87.9941L87.5898 16.248C88.6094 15.4043 89.5645 14.8008 90.4551 14.4375C91.3457 14.0742 92.3008 13.8926 93.3203 13.8926C95.2773 13.8926 96.8477 14.5664 98.0312 15.9141C99.2266 17.2617 99.8242 19.2715 99.8242 21.9434C99.8242 25.3066 98.7988 28.1484 96.748 30.4688C94.9902 32.4492 92.9102 33.4395 90.5078 33.4395C88.0352 33.4395 86.166 32.4375 84.9004 30.4336L82.8789 40.1191H77.834L83.2129 14.332ZM86.2539 25.0371C86.2539 26.4902 86.6055 27.6211 87.3086 28.4297C88.0234 29.2266 88.8613 29.625 89.8223 29.625C90.6543 29.625 91.457 29.3262 92.2305 28.7285C93.0039 28.1191 93.6426 27.1172 94.1465 25.7227C94.6621 24.3164 94.9199 23.0156 94.9199 21.8203C94.9199 20.4258 94.5859 19.3594 93.918 18.6211C93.25 17.8711 92.4004 17.4961 91.3691 17.4961C90.4082 17.4961 89.5293 17.8418 88.7324 18.5332C87.9473 19.2129 87.3379 20.2207 86.9043 21.5566C86.4707 22.8809 86.2539 24.041 86.2539 25.0371Z" fill="white"/>
<path d="M101.512 33L106.891 7.23047H125.998L125.102 11.5371H111.303L110.072 17.3906H123.414L122.518 21.6973H109.176L107.559 28.6934H122.553L121.639 33H101.512ZM124.943 33L125.787 28.9395L140.623 11.5371H128.617L129.514 7.23047H148.094L147.32 11.2734L132.326 28.7812C133.92 28.7461 134.84 28.7285 135.086 28.7285C136.211 28.7285 137.764 28.7168 139.744 28.6934H145.826L144.93 33H124.943Z" fill="#E19132"/>
<path d="M170 46L155 37.3397V54.6603L170 46ZM0 47.5H156.5V44.5H0V47.5Z" fill="white"/>
</svg>
